<svg id="visual" viewBox="0 0 900 600" width="900" height="600" xmlns="http://www.w3.org/2000/svg" xmlns:xlink="http://www.w3.org/1999/xlink" version="1.1"><rect x="0" y="0" width="900" height="600" fill="#001220"></rect><path d="M0 397L21.5 396C43 395 86 393 128.8 387.5C171.7 382 214.3 373 257.2 375.8C300 378.7 343 393.3 385.8 395C428.7 396.7 471.3 385.3 514.2 378.7C557 372 600 370 642.8 380.3C685.7 390.7 728.3 413.3 771.2 425.7C814 438 857 440 878.5 441L900 442L900 601L878.5 601C857 601 814 601 771.2 601C728.3 601 685.7 601 642.8 601C600 601 557 601 514.2 601C471.3 601 428.7 601 385.8 601C343 601 300 601 257.2 601C214.3 601 171.7 601 128.8 601C86 601 43 601 21.5 601L0 601Z" fill="#fa7268"></path><path d="M0 393L21.5 393.8C43 394.7 86 396.3 128.8 397.5C171.7 398.7 214.3 399.3 257.2 408C300 416.7 343 433.3 385.8 435.3C428.7 437.3 471.3 424.7 514.2 426.5C557 428.3 600 444.7 642.8 453C685.7 461.3 728.3 461.7 771.2 455.8C814 450 857 438 878.5 432L900 426L900 601L878.5 601C857 601 814 601 771.2 601C728.3 601 685.7 601 642.8 601C600 601 557 601 514.2 601C471.3 601 428.7 601 385.8 601C343 601 300 601 257.2 601C214.3 601 171.7 601 128.8 601C86 601 43 601 21.5 601L0 601Z" fill="#f16367"></path><path d="M0 439L21.5 439.7C43 440.3 86 441.7 128.8 442.5C171.7 443.3 214.3 443.7 257.2 452C300 460.3 343 476.7 385.8 473.8C428.7 471 471.3 449 514.2 444.5C557 440 600 453 642.8 455.5C685.7 458 728.3 450 771.2 443.2C814 436.3 857 430.7 878.5 427.8L900 425L900 601L878.5 601C857 601 814 601 771.2 601C728.3 601 685.7 601 642.8 601C600 601 557 601 514.2 601C471.3 601 428.7 601 385.8 601C343 601 300 601 257.2 601C214.3 601 171.7 601 128.8 601C86 601 43 601 21.5 601L0 601Z" fill="#e85467"></path><path d="M0 493L21.5 489.5C43 486 86 479 128.8 476.3C171.7 473.7 214.3 475.3 257.2 477.2C300 479 343 481 385.8 487C428.7 493 471.3 503 514.2 507.5C557 512 600 511 642.8 505.2C685.7 499.3 728.3 488.7 771.2 481.3C814 474 857 470 878.5 468L900 466L900 601L878.5 601C857 601 814 601 771.2 601C728.3 601 685.7 601 642.8 601C600 601 557 601 514.2 601C471.3 601 428.7 601 385.8 601C343 601 300 601 257.2 601C214.3 601 171.7 601 128.8 601C86 601 43 601 21.5 601L0 601Z" fill="#de4467"></path><path d="M0 514L21.5 518.8C43 523.7 86 533.3 128.8 531.7C171.7 530 214.3 517 257.2 513.3C300 509.7 343 515.3 385.8 520C428.7 524.7 471.3 528.3 514.2 532.3C557 536.3 600 540.7 642.8 539.2C685.7 537.7 728.3 530.3 771.2 525.3C814 520.3 857 517.7 878.5 516.3L900 515L900 601L878.5 601C857 601 814 601 771.2 601C728.3 601 685.7 601 642.8 601C600 601 557 601 514.2 601C471.3 601 428.7 601 385.8 601C343 601 300 601 257.2 601C214.3 601 171.7 601 128.8 601C86 601 43 601 21.5 601L0 601Z" fill="#d23467"></path><path d="M0 567L21.5 565C43 563 86 559 128.8 559C171.7 559 214.3 563 257.2 566.2C300 569.3 343 571.7 385.8 566.8C428.7 562 471.3 550 514.2 544.3C557 538.7 600 539.3 642.8 544C685.7 548.7 728.3 557.3 771.2 563.5C814 569.7 857 573.3 878.5 575.2L900 577L900 601L878.5 601C857 601 814 601 771.2 601C728.3 601 685.7 601 642.8 601C600 601 557 601 514.2 601C471.3 601 428.7 601 385.8 601C343 601 300 601 257.2 601C214.3 601 171.7 601 128.8 601C86 601 43 601 21.5 601L0 601Z" fill="#c62368"></path></svg>